<?xml version="1.0" standalone="no"?>
<!DOCTYPE svg PUBLIC "-//W3C//DTD SVG 20010904//EN"
 "http://www.w3.org/TR/2001/REC-SVG-20010904/DTD/svg10.dtd">
<svg version="1.0" xmlns="http://www.w3.org/2000/svg"
 width="776.000000pt" height="776.000000pt" viewBox="0 0 776.000000 776.000000"
 preserveAspectRatio="xMidYMid meet">
<metadata>
Created by potrace 1.14, written by Peter Selinger 2001-2017
</metadata>
<g transform="translate(0.000000,776.000000) scale(0.100000,-0.100000)"
fill="#000000" stroke="none">
<path d="M0 3880 l0 -3880 3880 0 3880 0 0 3880 0 3880 -3880 0 -3880 0 0
-3880z m1504 2734 c22 -21 20 -50 -4 -74 -24 -24 -53 -26 -74 -4 -19 18 -21
65 -4 82 17 17 64 15 82 -4z m1150 0 c22 -21 20 -50 -4 -74 -24 -24 -53 -26
-74 -4 -19 18 -21 65 -4 82 17 17 64 15 82 -4z m2294 4 c30 -30 3 -98 -39 -98
-25 0 -59 34 -59 59 0 42 68 69 98 39z m1150 0 c17 -17 15 -64 -4 -82 -21 -22
-50 -20 -74 4 -24 24 -26 53 -4 74 18 19 65 21 82 4z m-4598 -1148 c38 -38 15
-90 -39 -90 -34 0 -51 17 -51 51 0 54 52 77 90 39z m1150 0 c38 -38 15 -90
-39 -90 -34 0 -51 17 -51 51 0 54 52 77 90 39z m2294 4 c19 -18 21 -65 4 -82
-17 -17 -64 -15 -82 4 -22 21 -20 50 4 74 24 24 53 26 74 4z m1150 0 c19 -18
21 -65 4 -82 -17 -17 -64 -15 -82 4 -22 21 -20 50 4 74 24 24 53 26 74 4z
m-4594 -1154 c38 -38 15 -90 -39 -90 -34 0 -51 17 -51 51 0 54 52 77 90 39z
m1150 0 c24 -24 26 -53 4 -74 -18 -19 -65 -21 -82 -4 -17 17 -15 64 4 82 21
22 50 20 74 -4z m2294 4 c19 -18 21 -65 4 -82 -17 -17 -64 -15 -82 4 -22 21
-20 50 4 74 24 24 53 26 74 4z m1150 0 c34 -34 9 -94 -39 -94 -30 0 -55 25
-55 55 0 30 25 55 55 55 13 0 31 -7 39 -16z m-4590 -1150 c34 -34 9 -94 -39
-94 -30 0 -55 25 -55 55 0 30 25 55 55 55 13 0 31 -7 39 -16z m1146 -4 c24
-24 26 -53 4 -74 -18 -19 -65 -21 -82 -4 -17 17 -15 64 4 82 21 22 50 20 74
-4z m2294 4 c34 -34 9 -94 -39 -94 -30 0 -55 25 -55 55 0 13 7 31 16 39 8 9
26 16 39 16 13 0 31 -7 39 -16z m1150 0 c34 -34 9 -94 -39 -94 -30 0 -55 25
-55 55 0 30 25 55 55 55 13 0 31 -7 39 -16z m-4590 -1150 c9 -8 16 -26 16 -39
0 -13 -7 -31 -16 -39 -8 -9 -26 -16 -39 -16 -13 0 -31 7 -39 16 -9 8 -16 26
-16 39 0 13 7 31 16 39 8 9 26 16 39 16 13 0 31 -7 39 -16z m1146 -4 c38 -38
15 -90 -39 -90 -34 0 -51 17 -51 51 0 54 52 77 90 39z m2294 4 c34 -34 9 -94
-39 -94 -30 0 -55 25 -55 55 0 30 25 55 55 55 13 0 31 -7 39 -16z m1150 0 c34
-34 9 -94 -39 -94 -30 0 -55 25 -55 55 0 30 25 55 55 55 13 0 31 -7 39 -16z
m-4590 -1150 c9 -8 16 -26 16 -39 0 -13 -7 -31 -16 -39 -8 -9 -26 -16 -39 -16
-13 0 -31 7 -39 16 -9 8 -16 26 -16 39 0 13 7 31 16 39 8 9 26 16 39 16 13 0
31 -7 39 -16z m1150 0 c34 -34 9 -94 -39 -94 -30 0 -55 25 -55 55 0 30 25 55
55 55 13 0 31 -7 39 -16z m2290 0 c34 -34 9 -94 -39 -94 -30 0 -55 25 -55 55
0 30 25 55 55 55 13 0 31 -7 39 -16z m1150 0 c34 -34 9 -94 -39 -94 -30 0 -55
25 -55 55 0 30 25 55 55 55 13 0 31 -7 39 -16z"/>
</g>
</svg>
